<?xml version="1.0" standalone="no"?>
<!DOCTYPE svg PUBLIC "-//W3C//DTD SVG 20010904//EN"
 "http://www.w3.org/TR/2001/REC-SVG-20010904/DTD/svg10.dtd">
<svg version="1.0" xmlns="http://www.w3.org/2000/svg"
 width="100.000000pt" height="100.000000pt" viewBox="0 0 100.000000 100.000000"
 preserveAspectRatio="xMidYMid meet">

<g transform="translate(0.000000,100.000000) scale(0.100000,-0.100000)"
fill="#000000" stroke="none">
<path d="M410 584 l-375 -375 44 -40 c96 -86 257 -138 391 -125 373 34 596
425 435 761 -31 64 -97 155 -113 155 -4 0 -176 -169 -382 -376z m461 199 c138
-289 -43 -637 -362 -694 -127 -23 -270 11 -377 90 -36 27 -41 35 -31 47 10 12
16 11 45 -11 43 -33 141 -78 153 -71 5 3 22 -1 37 -9 37 -19 135 -19 181 0 19
8 44 15 55 15 84 0 278 197 278 283 0 14 7 38 15 53 19 37 19 141 0 178 -8 15
-12 32 -9 37 7 12 -28 88 -65 142 -23 34 -27 47 -18 56 16 17 58 -33 98 -116z
m-107 30 c32 -49 58 -111 48 -117 -9 -5 -307 -86 -318 -86 -5 0 45 54 111 120
66 66 123 120 127 120 4 0 19 -17 32 -37z m74 -233 c4 -100 7 -99 -162 -54
-80 21 -146 41 -146 45 0 9 260 78 285 76 17 -2 20 -10 23 -67z m-208 -84 c52
-14 114 -30 138 -36 29 -7 42 -16 42 -28 0 -30 -59 -122 -78 -122 -9 0 -67 50
-127 111 -61 61 -101 109 -90 106 11 -3 63 -17 115 -31z m-280 -148 c-22 -84
-45 -157 -49 -161 -10 -10 -92 30 -131 61 l-25 21 120 120 c65 66 121 119 123
117 2 -2 -15 -73 -38 -158z m340 -80 c0 -19 -92 -78 -121 -78 -12 0 -25 34
-54 143 -21 78 -40 149 -43 157 -3 8 45 -34 107 -95 61 -60 111 -118 111 -127z
m-217 65 c42 -157 43 -159 21 -167 -27 -10 -132 -7 -140 5 -7 12 65 299 76
299 4 0 23 -62 43 -137z"/>
</g>
</svg>
